<?xml version="1.0" encoding="UTF-8"?><svg id="_レイヤー_2" xmlns="http://www.w3.org/2000/svg" viewBox="0 0 400.59 686.61"><defs><style>.cls-1{fill:#ff1273;}.cls-2{fill:#ff5c92;}.cls-3{fill:#9d092e;}.cls-4{isolation:isolate;}</style></defs><g id="Layer_1"><g><g><polygon class="cls-1" points="399.34 83.4 400.59 525.34 287.58 590.59 286.33 148.65 399.34 83.4"/><polygon class="cls-3" points="287.58 590.59 167.57 520.84 166.32 78.91 286.33 148.65 287.58 590.59"/><polygon class="cls-2" points="286.33 148.65 166.32 78.91 279.33 13.66 399.34 83.4 286.33 148.65"/></g><g><path d="M190.63,82.42c-5.13-1.88-9.48-4.64-13.06-8.27-3.57-3.63-6.3-8.1-8.18-13.4-1.88-5.3-2.82-11.37-2.82-18.22v-.06c0-9.01,1.64-16.68,4.93-23.01,3.29-6.33,7.98-11.16,14.08-14.48,6.1-3.33,13.37-4.99,21.81-4.99,6.88,0,13.06,1.24,18.56,3.71,5.49,2.47,9.94,5.85,13.34,10.15,3.4,4.3,5.37,9.18,5.9,14.65l.06,.57h-23.78l-.17-.57c-.84-2.74-2.47-4.88-4.9-6.44-2.43-1.56-5.4-2.34-8.89-2.34s-6.35,.85-8.78,2.57c-2.43,1.71-4.3,4.24-5.59,7.58-1.29,3.35-1.94,7.45-1.94,12.32v.06c0,3.73,.41,7.03,1.23,9.92,.82,2.89,2,5.32,3.53,7.3,1.54,1.98,3.38,3.48,5.53,4.5,2.15,1.03,4.55,1.54,7.21,1.54s4.94-.41,6.96-1.23c2.01-.82,3.65-2,4.9-3.56,1.25-1.56,2.01-3.42,2.28-5.59l.11-.86h-14.37v-16.65h37.63v11.12c0,5.63-.86,10.69-2.57,15.19-1.71,4.5-4.21,8.34-7.5,11.52-3.29,3.17-7.29,5.6-12,7.27-4.71,1.67-10.05,2.51-16.02,2.51-6.54,0-12.37-.94-17.5-2.82Z"/><path d="M255.8,1.48h58.04V20.64h-33.87v13.11h31.76v17.79h-31.76v13.06h33.87v19.16h-58.04V1.48Z"/><path d="M325.13,1.48h20.13l35.46,51.31-15.85-9.24h9.86V1.48h24.17V83.76h-19.9l-35.63-52,15.79,9.24h-9.86v42.76h-24.17V1.48Z"/></g><g class="cls-4"><polygon class="cls-1" points="233.02 179.43 234.28 621.36 121.27 686.61 120.01 244.67 233.02 179.43"/><polygon class="cls-3" points="121.27 686.61 1.25 616.86 0 174.93 120.01 244.67 121.27 686.61"/><polygon class="cls-2" points="120.01 244.67 0 174.93 113.01 109.68 233.02 179.43 120.01 244.67"/></g><g><path d="M21.11,609.59h16.11v13.85h-5.56l-11.56,44.26H2.14l18.97-58.11Zm-3.5,34.51h28.43l3.54,12.04H14.06l3.54-12.04Zm14.38-20.66v-13.85h10.55l18.97,58.11h-17.96l-11.56-44.26Z"/><path d="M76.49,666.08c-3.84-1.79-6.83-4.31-8.96-7.57-2.13-3.26-3.2-7.09-3.2-11.5v-37.41h17.08v35.72c0,2.04,.33,3.77,.99,5.17,.66,1.41,1.62,2.48,2.88,3.22,1.26,.74,2.82,1.11,4.67,1.11s3.42-.37,4.69-1.11c1.27-.74,2.24-1.81,2.88-3.22,.64-1.41,.97-3.13,.97-5.17v-35.72h17.08v37.41c0,4.38-1.06,8.2-3.18,11.46-2.12,3.26-5.1,5.79-8.94,7.59-3.84,1.8-8.35,2.7-13.53,2.7s-9.57-.89-13.41-2.68Z"/><path d="M123.61,609.59h24.85c5.88,0,10.91,1.09,15.08,3.26,4.17,2.17,7.37,5.38,9.58,9.62s3.32,9.46,3.32,15.67v.08c0,6.2-1.11,11.5-3.32,15.91-2.21,4.4-5.41,7.77-9.58,10.09-4.18,2.32-9.2,3.48-15.08,3.48h-24.85v-58.11Zm22.43,44.54c2.85,0,5.24-.58,7.17-1.75s3.39-2.93,4.37-5.28c.98-2.35,1.47-5.31,1.47-8.88v-.08c0-3.25-.52-5.99-1.55-8.22-1.03-2.23-2.52-3.91-4.47-5.05-1.95-1.14-4.28-1.71-6.99-1.71h-5.36v30.97h5.36Z"/><path d="M183.09,609.59h17.08v58.11h-17.08v-58.11Z"/><path d="M221.31,623.12h-15.3v-13.53h47.68v13.53h-15.3v44.58h-17.08v-44.58Z"/><path d="M259.53,609.59h17.08v58.11h-17.08v-58.11Z"/><path d="M296.94,665.11c-4.38-2.43-7.75-5.9-10.13-10.41-2.38-4.51-3.56-9.85-3.56-16.03v-.08c0-6.17,1.19-11.51,3.58-16.01s5.77-7.96,10.15-10.39c4.38-2.43,9.54-3.64,15.5-3.64s11.22,1.22,15.61,3.67,7.77,5.91,10.15,10.39,3.56,9.81,3.56,15.99v.08c0,6.18-1.19,11.51-3.56,16.01s-5.75,7.97-10.13,10.41c-4.38,2.44-9.58,3.67-15.63,3.67s-11.17-1.21-15.54-3.64Zm21.91-12.26c1.77-1.32,3.14-3.18,4.11-5.6,.97-2.42,1.45-5.28,1.45-8.58v-.08c0-3.33-.49-6.2-1.47-8.6-.98-2.4-2.36-4.25-4.15-5.56-1.79-1.3-3.89-1.95-6.3-1.95s-4.44,.64-6.22,1.93c-1.79,1.29-3.17,3.13-4.15,5.54-.98,2.4-1.47,5.28-1.47,8.64v.08c0,3.33,.49,6.2,1.47,8.62,.98,2.42,2.36,4.28,4.13,5.58,1.77,1.3,3.85,1.95,6.24,1.95s4.59-.66,6.36-1.97Z"/><path d="M348.45,609.59h14.22l25.05,36.25-11.2-6.52h6.97v-29.72h17.08v58.11h-14.06l-25.17-36.73,11.16,6.52h-6.97v30.21h-17.08v-58.11Z"/></g></g></g></svg>